<svg width="11" height="11" viewBox="0 0 11 11" fill="none" xmlns="http://www.w3.org/2000/svg">
<path d="M10.6512 6.20838C10.5397 6.1804 10.4282 6.20838 10.3306 6.27833C9.96809 6.58612 9.54985 6.83794 9.08979 7.00582C8.6576 7.17371 8.1836 7.25765 7.68171 7.25765C6.55245 7.25765 5.52079 6.79597 4.7819 6.05449C4.043 5.31301 3.58294 4.27773 3.58294 3.14453C3.58294 2.66886 3.66659 2.20718 3.806 1.78748C3.95936 1.33979 4.18242 0.934076 4.47519 0.584321C4.60066 0.430428 4.57278 0.206585 4.41942 0.0806732C4.32183 0.0107222 4.2103 -0.0172582 4.09877 0.0107222C2.91375 0.332497 1.88209 1.046 1.14319 1.99733C0.432183 2.93467 0 4.09586 0 5.36897C0 6.8939 0.613421 8.27893 1.6172 9.28623C2.62098 10.2935 4.00118 10.9091 5.52079 10.9091C6.8034 10.9091 7.98842 10.4614 8.93643 9.71992C9.89839 8.96445 10.5955 7.88721 10.8882 6.65607C10.9579 6.44622 10.8464 6.25035 10.6512 6.20838ZM8.51819 9.13233C7.70959 9.77588 6.67793 10.1676 5.54867 10.1676C4.22424 10.1676 3.02528 9.62199 2.16092 8.7546C1.29655 7.88721 0.752835 6.68405 0.752835 5.35498C0.752835 4.24975 1.11531 3.24246 1.74267 2.43103C2.17486 1.87142 2.71857 1.40974 3.34593 1.08797C3.27623 1.24186 3.20652 1.39575 3.15075 1.56363C2.96952 2.06728 2.88587 2.59891 2.88587 3.15852C2.88587 4.48759 3.42958 5.70474 4.29395 6.57213C5.15832 7.43952 6.37122 7.98514 7.69565 7.98514C8.28119 7.98514 8.83884 7.88721 9.35467 7.69134C9.53591 7.62139 9.71715 7.55144 9.88445 7.4675C9.54985 8.11105 9.08979 8.68465 8.51819 9.13233Z" fill="white"/>
</svg>
